<!DOCTYPE svg PUBLIC "-//W3C//DTD SVG 1.1//EN" "http://www.w3.org/Graphics/SVG/1.1/DTD/svg11.dtd">
<!-- Uploaded to: SVG Repo, www.svgrepo.com, Transformed by: SVG Repo Mixer Tools -->
<svg width="800px" height="800px" viewBox="0 0 32 32" id="OBJECT" xmlns="http://www.w3.org/2000/svg" fill="#005230">
<g id="SVGRepo_bgCarrier" stroke-width="0"/>
<g id="SVGRepo_tracerCarrier" stroke-linecap="round" stroke-linejoin="round"/>
<g id="SVGRepo_iconCarrier">
<defs>
<style>.cls-1{fill:#005230;}</style>
</defs>
<title/>
<path class="cls-1" d="M21.9,9.43a1,1,0,0,0,0-.86A6.49,6.49,0,0,0,16,5a6.49,6.49,0,0,0-5.9,3.57,1,1,0,0,0,0,.86A6.49,6.49,0,0,0,16,13,6.49,6.49,0,0,0,21.9,9.43Z"/>
<path class="cls-1" d="M7,23a6.49,6.49,0,0,0-5.9,3.57,1,1,0,0,0,0,.86A6.49,6.49,0,0,0,7,31a6.49,6.49,0,0,0,5.9-3.57,1,1,0,0,0,0-.86A6.49,6.49,0,0,0,7,23Z"/>
<path class="cls-1" d="M30.9,26.57a6.66,6.66,0,0,0-11.8,0,1,1,0,0,0,0,.86,6.66,6.66,0,0,0,11.8,0A1,1,0,0,0,30.9,26.57Z"/>
<circle cx="16" cy="4" r="3"/>
<circle cx="7" cy="22" r="3"/>
<circle cx="25" cy="22" r="3"/>
<path d="M20,20a1,1,0,0,1-.71-.29L16,16.41l-3.29,3.3a1,1,0,0,1-1.42-1.42l4-4a1,1,0,0,1,1.42,0l4,4a1,1,0,0,1,0,1.42A1,1,0,0,1,20,20Z"/>
</g>
</svg>